<svg width="1398" height="722" viewBox="0 0 1398 722" fill="none" xmlns="http://www.w3.org/2000/svg">
<path d="M1382.98 130.028C1374.35 114.705 1362.23 101.631 1347.6 91.863C1332.98 82.0953 1316.26 75.9088 1298.8 73.8046C1281.34 71.7003 1263.63 73.7374 1247.1 79.751C1230.58 85.7645 1215.7 95.5853 1203.67 108.418C1191.65 121.251 1182.81 136.736 1177.88 153.618C1172.96 170.5 1172.07 188.306 1175.31 205.593C1178.54 222.88 1185.8 239.162 1196.5 253.122C1207.19 267.081 1221.03 278.326 1236.88 285.945L1257.76 242.508C1248.73 238.168 1240.85 231.762 1234.75 223.809C1228.66 215.856 1224.52 206.58 1222.68 196.732C1220.84 186.883 1221.34 176.74 1224.15 167.122C1226.96 157.504 1231.99 148.683 1238.84 141.372C1245.69 134.061 1254.17 128.466 1263.58 125.04C1273 121.614 1283.09 120.453 1293.03 121.652C1302.98 122.851 1312.51 126.375 1320.84 131.94C1329.17 137.505 1336.07 144.953 1340.99 153.682L1382.98 130.028Z" fill="#6070FF"/>
<path d="M245.633 705.782C247.955 703.017 249.593 699.743 250.415 696.226C251.236 692.709 251.218 689.048 250.362 685.539C249.505 682.031 247.835 678.773 245.485 676.03C243.136 673.288 240.173 671.137 236.838 669.752C233.502 668.367 229.888 667.787 226.286 668.059C222.685 668.33 219.198 669.447 216.109 671.317C213.019 673.187 210.413 675.758 208.502 678.822C206.591 681.887 205.428 685.358 205.108 688.956L214.966 689.833C215.148 687.783 215.811 685.805 216.9 684.06C217.988 682.314 219.473 680.849 221.233 679.784C222.993 678.718 224.98 678.082 227.031 677.927C229.083 677.773 231.142 678.103 233.043 678.892C234.943 679.681 236.63 680.906 237.969 682.469C239.307 684.032 240.259 685.887 240.747 687.886C241.235 689.885 241.245 691.971 240.777 693.974C240.309 695.978 239.376 697.843 238.053 699.419L245.633 705.782Z" fill="#EBEBFF"/>
<rect x="1111.4" y="102" width="204" height="47" transform="rotate(-30 1111.4 102)" fill="#EBEBFF"/>
<rect x="696.838" y="631" width="161.407" height="28.875" transform="rotate(23.34 696.838 631)" fill="#EBEBFF"/>
<rect width="56.0124" height="10.0203" transform="matrix(0.977401 -0.211395 -0.211395 -0.977401 658.652 142.572)" fill="#6070FF"/>
<rect y="99.9232" width="108.669" height="19.4403" transform="rotate(-46.1415 0 99.9232)" fill="#EBEBFF"/>
<circle cx="827.898" cy="662.5" r="23.5" fill="#6070FF"/>
<circle cx="684.898" cy="149.5" r="11.5" fill="#EBEBFF"/>
<circle cx="1176.9" cy="562.5" r="37" fill="white" stroke="#EBEBFF"/>
<circle cx="19.5" cy="19.5" r="19" transform="matrix(1 0 0 -1 930.398 73)" fill="white" stroke="#EBEBFF"/>
<circle cx="351.898" cy="53.5" r="7" fill="white" stroke="#EBEBFF"/>
<circle cx="11.5" cy="11.5" r="11" transform="matrix(1 0 0 -1 38.3984 416)" fill="white" stroke="#EBEBFF"/>
<path d="M46.3826 73.0741C42.192 82.8892 42.0721 93.967 46.0492 103.87C50.0263 113.774 57.7747 121.692 67.5898 125.883C77.4049 130.073 88.4827 130.193 98.3862 126.216C108.29 122.239 116.208 114.49 120.398 104.675L46.3826 73.0741Z" fill="#6070FF"/>
<path d="M220.554 650C220.219 654.881 221.838 659.695 225.053 663.383C228.268 667.071 232.816 669.331 237.698 669.666C242.579 670 247.393 668.382 251.081 665.166C254.769 661.951 257.029 657.403 257.363 652.522L220.554 650Z" fill="#6070FF"/>
</svg>
